<svg xmlns="http://www.w3.org/2000/svg" viewBox="0 0 720 360" role="img" aria-label="qkdgur4 blog control-room information architecture">
  <rect width="720" height="360" fill="#0f172a"/>
  <path d="M0 0h720v360H0z" fill="url(#grid)"/>
  <text x="36" y="54" fill="#38bdf8" font-family="ui-monospace, SFMono-Regular, Menlo, Consolas, monospace" font-size="20" font-weight="700">qkdgur4.github.io</text>
  <text x="36" y="84" fill="#cbd5e1" font-family="Inter, Arial, sans-serif" font-size="14">control-room information architecture</text>
  <g font-family="Inter, Arial, sans-serif" font-size="14" font-weight="700">
    <rect x="42" y="124" width="160" height="76" rx="12" fill="#1e293b" stroke="#38bdf8"/>
    <text x="78" y="158" fill="#e0f2fe">Identity</text>
    <text x="65" y="180" fill="#94a3b8" font-size="12">Korean-first hero</text>
    <rect x="280" y="124" width="160" height="76" rx="12" fill="#1e293b" stroke="#34d399"/>
    <text x="313" y="158" fill="#dcfce7">Logs</text>
    <text x="302" y="180" fill="#94a3b8" font-size="12">writing signals</text>
    <rect x="518" y="124" width="160" height="76" rx="12" fill="#1e293b" stroke="#60a5fa"/>
    <text x="552" y="158" fill="#dbeafe">Cases</text>
    <text x="535" y="180" fill="#94a3b8" font-size="12">proof and links</text>
    <path d="M218 162h46" stroke="#22d3ee" stroke-width="3" stroke-linecap="round"/>
    <path d="m254 152 14 10-14 10" fill="none" stroke="#22d3ee" stroke-width="3" stroke-linecap="round"/>
    <path d="M456 162h46" stroke="#34d399" stroke-width="3" stroke-linecap="round"/>
    <path d="m492 152 14 10-14 10" fill="none" stroke="#34d399" stroke-width="3" stroke-linecap="round"/>
  </g>
  <g font-family="ui-monospace, SFMono-Regular, Menlo, Consolas, monospace" font-size="13">
    <text x="44" y="286" fill="#a7f3d0">$ stack: Astro / Tailwind CSS / GitHub Pages</text>
    <text x="44" y="312" fill="#93c5fd">$ result: portfolio becomes a technical workbench</text>
  </g>
  <defs>
    <pattern id="grid" width="32" height="32" patternUnits="userSpaceOnUse">
      <path d="M32 0H0v32" fill="none" stroke="#1e293b" stroke-width="1"/>
    </pattern>
  </defs>
</svg>
