<svg xmlns="http://www.w3.org/2000/svg" viewBox="0 0 720 360" role="img" aria-label="Seoul Simulator architecture flow">
  <rect width="720" height="360" fill="#0f172a"/>
  <path d="M0 0h720v360H0z" fill="url(#grid)"/>
  <text x="36" y="54" fill="#38bdf8" font-family="ui-monospace, SFMono-Regular, Menlo, Consolas, monospace" font-size="20" font-weight="700">Seoul Simulator</text>
  <text x="36" y="84" fill="#cbd5e1" font-family="Inter, Arial, sans-serif" font-size="14">scenario inputs to comparable reports</text>
  <g font-family="Inter, Arial, sans-serif" font-size="15" font-weight="700">
    <rect x="42" y="142" width="140" height="74" rx="12" fill="#1e293b" stroke="#38bdf8"/>
    <text x="70" y="174" fill="#e0f2fe">Scenario</text>
    <text x="70" y="196" fill="#94a3b8" font-size="12">traffic / rent</text>
    <path d="M198 179h70" stroke="#22d3ee" stroke-width="3" stroke-linecap="round"/>
    <path d="m258 169 14 10-14 10" fill="none" stroke="#22d3ee" stroke-width="3" stroke-linecap="round"/>
    <rect x="284" y="142" width="148" height="74" rx="12" fill="#1e293b" stroke="#34d399"/>
    <text x="321" y="174" fill="#dcfce7">Model Run</text>
    <text x="318" y="196" fill="#94a3b8" font-size="12">agent flow</text>
    <path d="M448 179h70" stroke="#34d399" stroke-width="3" stroke-linecap="round"/>
    <path d="m508 169 14 10-14 10" fill="none" stroke="#34d399" stroke-width="3" stroke-linecap="round"/>
    <rect x="534" y="142" width="144" height="74" rx="12" fill="#1e293b" stroke="#60a5fa"/>
    <text x="577" y="174" fill="#dbeafe">Report</text>
    <text x="570" y="196" fill="#94a3b8" font-size="12">compare output</text>
  </g>
  <g font-family="ui-monospace, SFMono-Regular, Menlo, Consolas, monospace" font-size="13">
    <text x="44" y="286" fill="#a7f3d0">$ stack: TypeScript / Python / LangGraph / AWS RDS</text>
    <text x="44" y="312" fill="#93c5fd">$ status: building evidence-first case study</text>
  </g>
  <defs>
    <pattern id="grid" width="32" height="32" patternUnits="userSpaceOnUse">
      <path d="M32 0H0v32" fill="none" stroke="#1e293b" stroke-width="1"/>
    </pattern>
  </defs>
</svg>
